<svg xmlns="http://www.w3.org/2000/svg" xmlns:xlink="http://www.w3.org/1999/xlink" id="Layer_1" data-name="Layer 1" viewBox="0 0 45.66 57.73"><defs><style>.cls-1,.cls-3,.cls-4,.cls-5,.cls-6{fill:none}.cls-2{clip-path:url(#clip-path)}.cls-3,.cls-6{stroke:#bdc3c7}.cls-3,.cls-4,.cls-5,.cls-6{stroke-miterlimit:10}.cls-3{stroke-width:1.98px}.cls-4{stroke:#7f8c8d}.cls-4,.cls-5,.cls-6{stroke-width:.46px}.cls-5{stroke:#95a5a5}.cls-7{fill:#95a5a5}</style><clipPath id="clip-path"><rect width="37.43" height="37.43" x="8.22" y="4.97" class="cls-1" rx=".69" ry=".69"/></clipPath></defs><title>alice</title><g class="cls-2"><polygon points="30.96 8.33 39.74 17.11 39.74 29.53 30.96 38.31 18.54 38.31 9.76 29.53 9.76 17.11 18.54 8.33 30.96 8.33" class="cls-3"/><line x1="24.75" x2="24.75" y1="23.58" y2="35.71" class="cls-4"/><line x1="24.75" x2="24.75" y1="10.92" y2="23.58" class="cls-5"/><line x1="37.14" x2="12.35" y1="23.32" y2="23.32" class="cls-6"/><line x1="33.51" x2="15.98" y1="14.55" y2="32.08" class="cls-4"/><line x1="33.51" x2="15.98" y1="32.08" y2="14.55" class="cls-6"/><line x1="30.09" x2="19.41" y1="12.13" y2="34.5" class="cls-6"/><line x1="35.93" x2="13.56" y1="28.66" y2="17.98" class="cls-5"/><line x1="36.43" x2="13.06" y1="19.19" y2="27.45" class="cls-5"/><line x1="28.43" x2="21.07" y1="35.15" y2="11.48" class="cls-5"/><line x1="26.55" x2="22.94" y1="11.06" y2="35.58" class="cls-6"/><line x1="37.01" x2="12.49" y1="25.12" y2="21.51" class="cls-4"/><line x1="34.7" x2="14.8" y1="15.92" y2="30.71" class="cls-6"/><line x1="32.14" x2="17.35" y1="33.27" y2="13.37" class="cls-5"/><line x1="31.66" x2="17.84" y1="13.03" y2="33.61" class="cls-6"/><line x1="35.04" x2="14.46" y1="30.23" y2="16.41" class="cls-6"/><line x1="36.91" x2="12.59" y1="20.93" y2="25.7" class="cls-4"/><line x1="24.8" x2="22.36" y1="23.58" y2="11.16" class="cls-4"/><line x1="27.13" x2="24.8" y1="35.48" y2="23.58" class="cls-5"/><line x1="28.35" x2="21.14" y1="11.46" y2="35.18" class="cls-5"/><line x1="36.61" x2="12.89" y1="26.92" y2="19.71" class="cls-4"/><line x1="19.32" x2="30.05" y1="12.58" y2="34.93" class="cls-6"/><line x1="24.97" x2="13.72" y1="23.58" y2="28.83" class="cls-6"/><line x1="35.42" x2="24.97" y1="17.55" y2="23.58" class="cls-5"/></g><path d="M10.38,48.25l-.71,1.67H8.38l3.26-7.38h1.28l3.23,7.38H14.81l-.71-1.67Zm1.86-4.38-1.39,3.28h2.78Z" class="cls-7"/><path d="M21.56,48.78v1.13H17.12V42.53h1.24v6.25Z" class="cls-7"/><path d="M22.75,49.91V42.53H24v7.38Z" class="cls-7"/><path d="M32,43.64l-.73.91a2.88,2.88,0,0,0-2.05-.94,2.6,2.6,0,1,0,0,5.2,3,3,0,0,0,2.05-.87l.74.82A4.19,4.19,0,0,1,29.16,50a3.73,3.73,0,1,1,0-7.46A4.07,4.07,0,0,1,32,43.64Z" class="cls-7"/><path d="M34.53,43.65v2h3.61v1.12H34.53v2h4.15v1.12h-5.4V42.53h5.27v1.12Z" class="cls-7"/></svg>